<?xml version="1.0" encoding="utf-8"?>
<!-- Generator: Adobe Illustrator 25.4.1, SVG Export Plug-In . SVG Version: 6.00 Build 0)  -->
<svg version="1.1" id="Calque_1" xmlns="http://www.w3.org/2000/svg" xmlns:xlink="http://www.w3.org/1999/xlink" x="0px" y="0px"
	 viewBox="0 0 595.28 841.89" style="enable-background:new 0 0 595.28 841.89;" xml:space="preserve">
<style type="text/css">
	.st0{fill:#86BE47;stroke:#009F47;stroke-miterlimit:10;}
	.st1{fill:#FFFFFF;stroke:#000000;stroke-miterlimit:10;}
	.st2{fill:none;stroke:#000000;stroke-miterlimit:10;}
	.st3{fill:#F49739;stroke:#FFFFFF;stroke-miterlimit:10;}
	.st4{fill:#F49739;stroke:#000000;stroke-miterlimit:10;}
	.st5{fill:#079539;stroke:#FFFFFF;stroke-width:2;stroke-miterlimit:10;}
	.st6{fill:#037534;stroke:#FFFFFF;stroke-miterlimit:10;}
	.st7{fill:#3670B7;stroke:#FFFFFF;stroke-width:2;stroke-miterlimit:10;}
	.st8{fill:#6A539E;stroke:#FFFFFF;stroke-width:2;stroke-miterlimit:10;}
	.st9{fill:#243F92;stroke:#FFFFFF;stroke-width:2;stroke-miterlimit:10;}
	.st10{fill:#C3D200;stroke:#FFFFFF;stroke-width:2;stroke-miterlimit:10;}
	.st11{fill:#F28F2B;stroke:#FFFFFF;stroke-width:2;stroke-miterlimit:10;}
	.st12{fill:#B6BDE1;stroke:#FFFFFF;stroke-width:2;stroke-miterlimit:10;}
	.st13{fill:#93153D;stroke:#FFFFFF;stroke-width:2;stroke-miterlimit:10;}
	.st14{fill:none;stroke:#2F4333;stroke-width:2;stroke-miterlimit:10;}
	.st15{fill:#F49739;stroke:#1D1D1B;stroke-miterlimit:10;}
	.st16{fill:url(#SVGID_1_);stroke:url(#SVGID_00000021811679039315008190000011010154383727355521_);stroke-miterlimit:10;}
</style>
<ellipse class="st0" cx="311.84" cy="572.83" rx="276.12" ry="134.27"/>
<path class="st1" d="M340.64,124.69"/>
<path class="st1" d="M656,141.97"/>
<path class="st2" d="M479.6,64.93"/>
<polygon class="st3" points="656,141.97 538.56,135.53 340.64,124.69 340.64,112.45 656,127.21 "/>
<path class="st4" d="M535.76,466.69c0,4.32,2.8-331.16,2.8-331.16h18.8v342.68L535.76,466.69z"/>
<polygon class="st5" points="586.16,495.49 479.6,437.89 383.12,495.49 484.64,558.85 "/>
<polygon class="st6" points="484.64,653.89 468.08,642.37 383.12,589.09 484.64,653.89 586.16,593.41 586.16,495.49 484.64,558.85 
	"/>
<path class="st5" d="M383.12,495.49c0,93.6,0,93.6,0,93.6l101.52,64.8v-95.04L383.12,495.49z"/>
<polygon class="st7" points="340.64,420.89 442.16,357.25 391.4,327.01 298,386.05 "/>
<path class="st8" d="M347.12,564.65c-1.44-4.36-6.48-143.76-6.48-143.76L298,386.05l-0.36,146.88L347.12,564.65z"/>
<path class="st5" d="M383.12,541.57"/>
<polyline class="st9" points="442.16,357.25 446.52,457.64 383.12,495.49 383.12,541.57 347.12,564.65 340.64,420.89 "/>
<polygon class="st10" points="298,243.49 354.32,213.25 406.16,243.49 433.88,228.37 355.76,172.93 269.36,224.77 "/>
<path class="st11" d="M276.01,228.37l4.66,88l31.87,20.72l4.6,36.86l34.48-21.79c0,0-2.7-115.87,0-127.39
	c2.7-11.52,2.7-11.52,2.7-11.52l-50.4,30.24L276.01,228.37z"/>
<polygon class="st11" points="354.32,213.25 351.62,352.16 391.4,327.01 406.52,336.02 406.16,243.49 "/>
<polyline class="st11" points="406.16,243.49 406.52,336.02 420.95,344.61 433.61,352.16 433.88,228.37 "/>
<polygon class="st12" points="240.35,348.03 280.67,373.95 323.84,346.59 280.67,316.37 "/>
<polyline class="st13" points="282.13,515.65 282.13,515.65 282.13,370.21 241.81,344.29 241.81,501.25 282.13,524.29 
	282.13,370.21 322.38,342.85 322.38,372.18 302.75,391.81 302.75,503.67 282.13,524.29 "/>
<path class="st13" d="M269.33,342.85"/>
<path class="st12" d="M895.76,335.66"/>
<polyline class="st14" points="370.08,112.45 546.56,75.01 613.52,124.69 "/>
<polyline class="st14" points="462.32,135.53 462.32,228.37 462.32,266.53 "/>
<rect x="434.6" y="266.53" class="st14" width="50.04" height="16.7"/>
<polygon class="st15" points="546.56,75.01 533.16,121.46 559.96,121.46 "/>
<circle class="st11" cx="87.54" cy="496.93" r="1.44"/>
<radialGradient id="SVGID_1_" cx="253.52" cy="586.1075" r="240.4485" fx="192.4044" fy="613.0705" gradientUnits="userSpaceOnUse">
	<stop  offset="0" style="stop-color:#243F92"/>
	<stop  offset="1" style="stop-color:#00CBD4"/>
</radialGradient>
<radialGradient id="SVGID_00000049919760440352304860000003051662406521474233_" cx="253.52" cy="586.1075" r="190.1503" gradientUnits="userSpaceOnUse">
	<stop  offset="0" style="stop-color:#FFFFFF"/>
	<stop  offset="0.9949" style="stop-color:#000000"/>
</radialGradient>
<path style="fill:url(#SVGID_1_);stroke:url(#SVGID_00000049919760440352304860000003051662406521474233_);stroke-miterlimit:10;" d="
	M430.73,682.81c35.28-15.91,146.61-16.3-130.32,37.91C150.75,750.01,24.29,634.61,24.29,560.46s118.8-191.47,216.36-39.9
	C325.45,652.32,304.72,739.65,430.73,682.81z"/>
</svg>
